PathFileType	4	(X/Y/Z)	9_coords_data.trc
DataRate	CameraRate	NumFrames	NumMarkers	Units	OrigDataRate	OrigDataStartFrame	OrigNumFrames
30.0	30.0	8	21	m	30.0	10	48
Frame#	Time	THUMB_TIP	THUMB_IP	THUMB_MCP	THUMB_CMC	INDEX_TIP	INDEX_DIP	INDEX_PIP	INDEX_MCP	MIDDLE_TIP	MIDDLE_DIP	MIDDLE_PIP	MIDDLE_MCP	RING_TIP	RING_DIP	RING_PIP	RING_MCP	PINKY_TIP	PINKY_DIP	PINKY_PIP	PINKY_MCP	WRIST
X1	Y1	Z1	X2	Y2	Z2	X3	Y3	Z3	X4	Y4	Z4	X5	Y5	Z5	X6	Y6	Z6	X7	Y7	Z7	X8	Y8	Z8	X9	Y9	Z9	X10	Y10	Z10	X11	Y11	Z11	X12	Y12	Z12	X13	Y13	Z13	X14	Y14	Z14	X15	Y15	Z15	X16	Y16	Z16	X17	Y17	Z17	X18	Y18	Z18	X19	Y19	Z19	X20	Y20	Z20	X21	Y21	Z21
9	0.3	-0.03483679962158203	-0.0870250015258789	1.03593994140625	-0.033363700866699215	-0.06188700103759766	1.0464200439453124	-0.03858969879150391	-0.03998160171508789	1.067449951171875	-0.048416400909423826	-0.00806367015838623	1.0905699462890626	-0.025438499450683594	-0.001975059986114502	1.057719970703125	-0.017147699356079103	0.0029736499786376953	1.0410400390625	-0.018295400619506835	0.003903640031814575	1.0176300048828124	-0.05076139831542969	-0.01408839988708496	1.0293199462890625	-0.03913529968261719	0.004563370227813721	1.0707900390625	-0.026518299102783204	0.01568809986114502	1.059219970703125	-0.020162500381469727	0.023910200119018555	1.0335699462890624	-0.058758800506591796	0.00880508041381836	1.0280699462890626	-0.04931179809570312	0.014562600135803223	1.07856005859375	-0.03526419830322266	0.027818599700927735	1.0689200439453126	-0.029937700271606447	0.04103369903564453	1.047050048828125	-0.06759049987792969	0.029566600799560548	1.0390999755859376	-0.05203229904174805	0.02692539978027344	1.08047998046875	-0.041026798248291016	0.041089099884033205	1.0751500244140626	-0.042667400360107424	0.053621898651123046	1.061219970703125	-0.07346450042724609	0.04663980102539062	1.0551300048828125	-0.07968000030517577	0.001689059972763061	1.1131700439453125
10	0.3333333333333333	-0.035532501220703124	-0.0871427001953125	1.0358199462890625	-0.033864601135253906	-0.062024299621582034	1.04625	-0.038845401763916015	-0.04009640121459961	1.0673399658203124	-0.04811289978027344	-0.007605189800262451	1.090300048828125	-0.02562380027770996	-0.002131500005722046	1.058030029296875	-0.017440200805664063	0.00275189995765686	1.0411400146484375	-0.018509700775146486	0.003707089900970459	1.0175499877929688	-0.05093510055541992	-0.014229999542236329	1.0293699951171875	-0.03912710189819336	0.004438199996948242	1.0705	-0.026562999725341797	0.015650199890136718	1.058949951171875	-0.02031719970703125	0.0237549991607666	1.0334100341796875	-0.0589640998840332	0.008638480186462402	1.0281300048828126	-0.04919020080566406	0.014518300056457519	1.078530029296875	-0.035269100189208986	0.027721700668334962	1.0685799560546876	-0.030015199661254884	0.04089950180053711	1.04668994140625	-0.06772409820556641	0.029474899291992186	1.039030029296875	-0.05200199890136719	0.026909299850463867	1.080239990234375	-0.04098460006713867	0.04106219863891602	1.0748800048828124	-0.04268180084228516	0.05354410171508789	1.0608900146484375	-0.07354360198974609	0.046557498931884767	1.055050048828125	-0.0797833023071289	0.0017878199815750122	1.114010009765625
11	0.36666666666666664	-0.03577389907836914	-0.08740799713134766	1.0358199462890625	-0.03403870010375976	-0.06227999877929687	1.0463199462890624	-0.03898249816894531	-0.04027750015258789	1.0674200439453125	-0.048147098541259765	-0.008021679878234864	1.0901400146484375	-0.025985700607299805	-0.002280179977416992	1.057989990234375	-0.017693899154663087	0.0025784399509429933	1.04143994140625	-0.01857550048828125	0.003462670087814331	1.0175700073242187	-0.05100910186767578	-0.014326299667358398	1.029300048828125	-0.0391072006225586	0.004308020114898682	1.0708199462890624	-0.026618099212646483	0.015464599609375	1.058949951171875	-0.020374099731445314	0.023584100723266603	1.033260009765625	-0.05897439956665039	0.008621170043945312	1.02797998046875	-0.049430301666259766	0.014342900276184081	1.078550048828125	-0.0354010009765625	0.02757069969177246	1.068780029296875	-0.030050199508666994	0.04078219985961914	1.0465899658203126	-0.06774549865722657	0.029423599243164063	1.0391099853515624	-0.052005699157714844	0.02672979927062988	1.0801700439453126	-0.04092119979858398	0.040984798431396484	1.0748399658203125	-0.04274349975585937	0.05351110076904297	1.0609000244140625	-0.07352749633789063	0.046547199249267576	1.05506005859375	-0.07962229919433594	0.0016329599618911741	1.1136300048828125
12	0.4	-0.035231399536132815	-0.08746330261230469	1.0359599609375	-0.033585899353027346	-0.062366600036621096	1.0464100341796876	-0.03872499847412109	-0.04040869903564453	1.067489990234375	-0.04795479965209961	-0.007741310119628906	1.09027001953125	-0.026087099075317383	-0.0023248400688171376	1.0584599609375	-0.01716950035095215	0.002575949907302856	1.0414599609375	-0.01816279983520508	0.003513930082321167	1.0176799926757814	-0.050660400390625	-0.014321499824523926	1.0293199462890625	-0.03904840087890625	0.004292389869689941	1.070760009765625	-0.026303600311279297	0.01552079963684082	1.059030029296875	-0.020032800674438477	0.023668899536132812	1.033530029296875	-0.058550899505615234	0.00869871997833252	1.0279300537109375	-0.04912939834594727	0.014377200126647949	1.078530029296875	-0.03513600158691406	0.02764459991455078	1.068780029296875	-0.029888900756835937	0.04084220123291016	1.0468900146484375	-0.06750540161132812	0.02942919921875	1.0390999755859376	-0.05194219970703125	0.02705649948120117	1.080780029296875	-0.04068759918212891	0.041071601867675785	1.0747900390625	-0.04268780136108399	0.053618499755859375	1.0611099853515624	-0.07341320037841798	0.046466300964355466	1.0551300048828125	-0.07992620086669922	0.001558650016784668	1.1144300537109375
13	0.43333333333333335	-0.03503910064697266	-0.0875281982421875	1.0358699951171875	-0.03340060043334961	-0.062408699035644534	1.0464100341796876	-0.03856850051879883	-0.04051490020751953	1.0675400390625	-0.04780519866943359	-0.007942599773406982	1.0903699951171875	-0.025143199920654297	-0.002205739974975586	1.0585400390625	-0.01705999946594238	0.002461669921875	1.04143994140625	-0.01787879943847656	0.003428989887237549	1.0178699951171875	-0.05041310119628906	-0.014485600471496583	1.0294200439453125	-0.03878300094604492	0.004044730186462403	1.07072998046875	-0.026148399353027343	0.01530679988861084	1.0593499755859375	-0.019828500747680663	0.023565799713134765	1.033699951171875	-0.0582859001159668	0.008560429573059082	1.0278299560546875	-0.04905989837646484	0.01409689998626709	1.0786400146484374	-0.03493370056152344	0.027408700942993164	1.069	-0.029597000122070314	0.04068349838256836	1.0471199951171875	-0.06738909912109375	0.029249900817871093	1.039260009765625	-0.0517322998046875	0.026836700439453125	1.0806800537109376	-0.040583698272705075	0.04089329910278321	1.075030029296875	-0.042487098693847654	0.053428398132324216	1.0611300048828125	-0.07330879974365234	0.0463302993774414	1.055219970703125	-0.07999050140380859	0.0014103900194168092	1.1142900390625
14	0.4666666666666667	-0.034785999298095706	-0.08768419647216796	1.03568994140625	-0.033215198516845706	-0.06258789825439454	1.046300048828125	-0.03843840026855469	-0.04073590087890625	1.0674300537109376	-0.04780390167236328	-0.008408849716186523	1.0903299560546875	-0.025259700775146485	-0.002519680023193359	1.05818994140625	-0.0169862003326416	0.0021924600601196287	1.0410999755859376	-0.017932300567626954	0.003194560050964355	1.017739990234375	-0.05034429931640625	-0.014807399749755859	1.0293699951171875	-0.03875630187988281	0.003754699945449829	1.0705400390625	-0.02608219909667969	0.015119199752807616	1.0591400146484375	-0.020092100143432618	0.02317490005493164	1.0333499755859374	-0.05839950180053711	0.008134249687194825	1.028030029296875	-0.0489370002746582	0.013780799865722657	1.0786500244140624	-0.034834999084472656	0.027231599807739256	1.068719970703125	-0.02971260070800781	0.04035910034179688	1.0468399658203125	-0.06732949829101563	0.02892289924621582	1.039050048828125	-0.05183060073852539	0.026572099685668947	1.080510009765625	-0.040657798767089845	0.04059870147705078	1.07477001953125	-0.04256919860839844	0.05317520141601562	1.060949951171875	-0.07332389831542968	0.0459656982421875	1.055050048828125	-0.07982479858398438	0.000923268973827362	1.114219970703125
15	0.5	-0.034553298950195314	-0.08798410034179688	1.0355999755859375	-0.03305580139160156	-0.06288809967041016	1.0461400146484374	-0.0382864990234375	-0.041029998779296875	1.06731005859375	-0.04787329864501953	-0.008767189979553223	1.0903199462890625	-0.02525189971923828	-0.0028184399604797364	1.0582900390625	-0.017128299713134766	0.0018353300094604492	1.0408299560546874	-0.018134000778198243	0.002768480062484741	1.017469970703125	-0.05052349853515625	-0.015297100067138672	1.0291199951171874	-0.03883670043945313	0.003490050077438354	1.070260009765625	-0.02619770050048828	0.014701299667358399	1.05875	-0.02004710006713867	0.0229158992767334	1.0330999755859376	-0.058510898590087894	0.007646759986877441	1.027800048828125	-0.04894649887084961	0.013524499893188477	1.0783399658203126	-0.03521989822387695	0.02687459945678711	1.06847998046875	-0.029927400588989257	0.040057300567626956	1.046550048828125	-0.0675572967529297	0.028371799468994142	1.0388800048828124	-0.05185480117797851	0.026233999252319336	1.0805899658203124	-0.040803600311279296	0.040430301666259764	1.0744300537109375	-0.04282709884643555	0.05283409881591797	1.0605799560546876	-0.07355159759521485	0.0454379997253418	1.0548399658203125	-0.0797688980102539	0.000662544012069702	1.1141099853515626
16	0.5333333333333333	-0.03386629867553711	-0.0882041015625	1.03522998046875	-0.03259780120849609	-0.06314149856567383	1.0458800048828125	-0.03812120056152344	-0.04137189865112305	1.0670999755859376	-0.04790679931640625	-0.009129010200500488	1.0902099609375	-0.025271099090576173	-0.003291709899902343	1.05725	-0.017370000839233398	0.001442360043525695	1.040219970703125	-0.018531700134277344	0.002147569894790649	1.0168699951171876	-0.050699699401855466	-0.015947699546813965	1.0288800048828124	-0.0386859016418457	0.003424580097198486	1.0701500244140625	-0.026376100540161134	0.014336099624633789	1.05827001953125	-0.020460100173950196	0.02241200065612793	1.0323499755859376	-0.05879940032958984	0.006995810031890869	1.027449951171875	-0.04913740158081055	0.013105199813842774	1.0778599853515625	-0.035155799865722655	0.026492300033569335	1.067989990234375	-0.030236700057983398	0.039567100524902345	1.04575	-0.06778369903564453	0.02768589973449707	1.038510009765625	-0.05175500106811524	0.02583139991760254	1.08	-0.04089229965209961	0.03991749954223633	1.0736800537109374	-0.042976699829101565	0.052393600463867186	1.05981005859375	-0.07373090362548829	0.044849700927734375	1.0543900146484375	-0.07979930114746094	-3.2688498497009e-05	1.1141300048828124
